<svg xmlns="http://www.w3.org/2000/svg" xmlns:xlink="http://www.w3.org/1999/xlink" width="500" zoomAndPan="magnify" viewBox="0 0 375 374.999991" height="500" preserveAspectRatio="xMidYMid meet" version="1.0"><defs><g/><clipPath id="66690cae41"><path d="M 49 140 L 326 140 L 326 260.789062 L 49 260.789062 Z M 49 140 " clip-rule="nonzero"/></clipPath></defs><g clip-path="url(#66690cae41)"><path fill="#000000" d="M 276.074219 194.417969 C 250.589844 216.085938 219.042969 226.921875 187.492188 226.921875 C 155.945312 226.921875 124.402344 216.085938 98.914062 194.417969 C 64.984375 192.375 53.453125 161.226562 49.535156 140.929688 C 48.953125 155.480469 52.839844 178.890625 77.359375 201.246094 C 100.605469 237.484375 141.246094 261.496094 187.492188 261.496094 C 233.742188 261.496094 274.382812 237.484375 297.628906 201.246094 C 322.148438 178.890625 326.035156 155.480469 325.453125 140.929688 C 321.535156 161.226562 310 192.375 276.074219 194.417969 " fill-opacity="1" fill-rule="nonzero"/></g><path fill="#e76b1a" d="M 115.945312 180.539062 C 116.046875 160.9375 106.136719 144.402344 87.054688 132.335938 C 89.195312 117.664062 95.023438 105.960938 95.023438 105.960938 C 95.023438 105.960938 144.207031 142.835938 115.945312 180.539062 Z M 142.089844 99.722656 L 142.089844 62.78125 L 146.550781 62.78125 L 146.550781 97.492188 C 146.550781 98.726562 147.550781 99.722656 148.785156 99.722656 C 150.015625 99.722656 151.015625 98.726562 151.015625 97.492188 L 151.015625 62.78125 L 155.476562 62.78125 L 155.476562 97.492188 C 155.476562 98.726562 156.476562 99.722656 157.707031 99.722656 C 158.941406 99.722656 159.941406 98.726562 159.941406 97.492188 L 159.941406 62.78125 L 164.402344 62.78125 L 164.402344 97.492188 C 164.402344 98.726562 165.402344 99.722656 166.632812 99.722656 C 167.867188 99.722656 168.867188 98.726562 168.867188 97.492188 L 168.867188 62.78125 L 173.328125 62.78125 L 173.328125 103.195312 C 173.328125 107.324219 171.722656 111.074219 169.105469 113.867188 C 163.699219 119.628906 161.191406 127.53125 161.675781 135.417969 L 164.78125 186 C 165.03125 190.035156 161.828125 193.441406 157.785156 193.441406 L 157.632812 193.441406 C 153.589844 193.441406 150.386719 190.035156 150.636719 186 L 153.742188 135.417969 C 154.226562 127.53125 151.714844 119.628906 146.3125 113.867188 C 143.691406 111.074219 142.089844 107.324219 142.089844 103.195312 Z M 214.390625 62.78125 C 224.613281 62.78125 232.898438 75.585938 232.898438 91.378906 C 232.898438 100.894531 229.886719 109.328125 225.253906 114.523438 C 220.285156 120.097656 217.867188 127.488281 218.324219 134.941406 L 221.460938 186 C 221.707031 190.035156 218.503906 193.4375 214.464844 193.4375 L 214.3125 193.4375 C 210.269531 193.4375 207.066406 190.035156 207.3125 186 L 210.449219 134.941406 C 210.90625 127.488281 208.488281 120.097656 203.519531 114.523438 C 198.886719 109.328125 195.875 100.894531 195.875 91.378906 C 195.875 75.585938 204.164062 62.78125 214.390625 62.78125 Z M 279.96875 105.960938 C 279.96875 105.960938 285.789062 117.664062 287.933594 132.335938 C 268.851562 144.402344 258.941406 160.9375 259.042969 180.539062 C 230.78125 142.835938 279.96875 105.960938 279.96875 105.960938 Z M 109.496094 184.089844 C 132.054688 202.832031 159.773438 212.207031 187.492188 212.207031 C 215.214844 212.207031 242.933594 202.832031 265.488281 184.089844 C 262.761719 146.546875 300.195312 131.101562 318.152344 125.878906 C 315.59375 55.925781 258.074219 0 187.492188 0 C 116.914062 0 59.398438 55.925781 56.835938 125.878906 C 74.792969 131.101562 112.226562 146.546875 109.496094 184.089844 " fill-opacity="1" fill-rule="nonzero"/><g fill="#e76b1a" fill-opacity="1"><g transform="translate(22.743526, 325.546908)"><g><path d="M 8.8125 -11.328125 L 8.8125 0 L 2.265625 0 L 2.265625 -31.546875 L 12.609375 -31.546875 C 13.910156 -31.546875 15.203125 -31.421875 16.484375 -31.171875 C 17.765625 -30.929688 18.941406 -30.476562 20.015625 -29.8125 C 21.097656 -29.15625 21.960938 -28.1875 22.609375 -26.90625 C 23.253906 -25.625 23.578125 -23.9375 23.578125 -21.84375 L 23.578125 -21.03125 C 23.578125 -18.488281 23.101562 -16.535156 22.15625 -15.171875 C 21.21875 -13.816406 20.03125 -12.84375 18.59375 -12.25 L 23.578125 0 L 16.5 0 L 12.171875 -11.328125 Z M 8.8125 -16.984375 L 12.90625 -16.984375 C 13.5 -16.984375 14.101562 -17.085938 14.71875 -17.296875 C 15.34375 -17.515625 15.867188 -17.925781 16.296875 -18.53125 C 16.722656 -19.144531 16.9375 -20.046875 16.9375 -21.234375 L 16.9375 -21.640625 C 16.9375 -22.816406 16.722656 -23.707031 16.296875 -24.3125 C 15.867188 -24.925781 15.34375 -25.335938 14.71875 -25.546875 C 14.101562 -25.765625 13.5 -25.875 12.90625 -25.875 L 8.8125 -25.875 Z M 8.8125 -16.984375 "/></g></g></g><g fill="#e76b1a" fill-opacity="1"><g transform="translate(52.101531, 325.546908)"><g><path d="M 13.390625 0.53125 C 10.523438 0.53125 8.269531 0.132812 6.625 -0.65625 C 4.988281 -1.457031 3.816406 -2.640625 3.109375 -4.203125 C 2.410156 -5.765625 2.0625 -7.691406 2.0625 -9.984375 L 2.0625 -31.546875 L 8.609375 -31.546875 L 8.609375 -10.1875 C 8.609375 -8.519531 8.9375 -7.257812 9.59375 -6.40625 C 10.257812 -5.5625 11.523438 -5.140625 13.390625 -5.140625 C 15.242188 -5.140625 16.507812 -5.5625 17.1875 -6.40625 C 17.863281 -7.257812 18.203125 -8.519531 18.203125 -10.1875 L 18.203125 -31.546875 L 24.75 -31.546875 L 24.75 -9.984375 C 24.75 -7.691406 24.394531 -5.765625 23.6875 -4.203125 C 22.988281 -2.640625 21.8125 -1.457031 20.15625 -0.65625 C 18.5 0.132812 16.242188 0.53125 13.390625 0.53125 Z M 13.390625 0.53125 "/></g></g></g><g fill="#e76b1a" fill-opacity="1"><g transform="translate(83.077026, 325.546908)"><g><path d="M 26.53125 -20.171875 L 20.90625 0 L 14.234375 0 L 8.609375 -20.171875 L 8.8125 -13.875 L 8.8125 0 L 2.265625 0 L 2.265625 -31.546875 L 11.921875 -31.546875 L 17.59375 -11.359375 L 23.21875 -31.546875 L 32.921875 -31.546875 L 32.921875 0 L 26.359375 0 L 26.359375 -13.875 Z M 26.53125 -20.171875 "/></g></g></g><g fill="#e76b1a" fill-opacity="1"><g transform="translate(122.382565, 325.546908)"><g><path d="M 8.453125 -31.625 L 17.46875 -31.625 L 25.359375 0 L 18.359375 0 L 16.828125 -6.796875 L 9.09375 -6.796875 L 7.609375 0 L 0.5625 0 Z M 12.9375 -24.0625 L 10.359375 -12.453125 L 15.53125 -12.453125 Z M 12.9375 -24.0625 "/></g></g></g><g fill="#e76b1a" fill-opacity="1"><g transform="translate(152.46843, 325.546908)"><g><path d="M 18 -31.546875 L 24.546875 -31.546875 L 24.546875 0 L 18 0 L 18 -13.265625 L 8.8125 -13.265625 L 8.8125 0 L 2.265625 0 L 2.265625 -31.546875 L 8.8125 -31.546875 L 8.8125 -18.921875 L 18 -18.921875 Z M 18 -31.546875 "/></g></g></g><g fill="#e76b1a" fill-opacity="1"><g transform="translate(183.443925, 325.546908)"><g/></g></g><g fill="#e76b1a" fill-opacity="1"><g transform="translate(195.697012, 325.546908)"><g><path d="M 26.53125 -20.171875 L 20.90625 0 L 14.234375 0 L 8.609375 -20.171875 L 8.8125 -13.875 L 8.8125 0 L 2.265625 0 L 2.265625 -31.546875 L 11.921875 -31.546875 L 17.59375 -11.359375 L 23.21875 -31.546875 L 32.921875 -31.546875 L 32.921875 0 L 26.359375 0 L 26.359375 -13.875 Z M 26.53125 -20.171875 "/></g></g></g><g fill="#e76b1a" fill-opacity="1"><g transform="translate(235.002552, 325.546908)"><g><path d="M 8.453125 -31.625 L 17.46875 -31.625 L 25.359375 0 L 18.359375 0 L 16.828125 -6.796875 L 9.09375 -6.796875 L 7.609375 0 L 0.5625 0 Z M 12.9375 -24.0625 L 10.359375 -12.453125 L 15.53125 -12.453125 Z M 12.9375 -24.0625 "/></g></g></g><g fill="#e76b1a" fill-opacity="1"><g transform="translate(265.088416, 325.546908)"><g><path d="M 8.8125 -31.546875 L 8.8125 -19.171875 L 16.578125 -31.546875 L 24.5 -31.546875 L 15.65625 -18.890625 L 24.5 0 L 17.21875 0 L 11.484375 -12.90625 L 8.8125 -9.09375 L 8.8125 0 L 2.265625 0 L 2.265625 -31.546875 Z M 8.8125 -31.546875 "/></g></g></g><g fill="#e76b1a" fill-opacity="1"><g transform="translate(294.527308, 325.546908)"><g><path d="M 8.453125 -31.625 L 17.46875 -31.625 L 25.359375 0 L 18.359375 0 L 16.828125 -6.796875 L 9.09375 -6.796875 L 7.609375 0 L 0.5625 0 Z M 12.9375 -24.0625 L 10.359375 -12.453125 L 15.53125 -12.453125 Z M 12.9375 -24.0625 "/></g></g></g><g fill="#e76b1a" fill-opacity="1"><g transform="translate(324.613172, 325.546908)"><g><path d="M 25.359375 -31.546875 L 25.359375 0 L 18.4375 0 L 8.25 -19.578125 L 8.453125 -13.21875 L 8.453125 0 L 2.265625 0 L 2.265625 -31.546875 L 9.171875 -31.546875 L 19.328125 -11.96875 L 19.125 -18.3125 L 19.125 -31.546875 Z M 25.359375 -31.546875 "/></g></g></g><g fill="#e76b1a" fill-opacity="1"><g transform="translate(122.921503, 367.314849)"><g><path d="M 13.984375 -8.296875 C 13.984375 -6.273438 13.726562 -4.660156 13.21875 -3.453125 C 12.71875 -2.242188 11.925781 -1.363281 10.84375 -0.8125 C 9.757812 -0.269531 8.347656 0 6.609375 0 L 1.25 0 L 1.25 -17.484375 L 6.609375 -17.484375 C 8.347656 -17.484375 9.757812 -17.210938 10.84375 -16.671875 C 11.925781 -16.140625 12.71875 -15.265625 13.21875 -14.046875 C 13.726562 -12.828125 13.984375 -11.207031 13.984375 -9.1875 Z M 4.890625 -3.140625 L 6.40625 -3.140625 C 7.425781 -3.140625 8.21875 -3.328125 8.78125 -3.703125 C 9.34375 -4.078125 9.734375 -4.644531 9.953125 -5.40625 C 10.179688 -6.164062 10.296875 -7.128906 10.296875 -8.296875 L 10.296875 -9.1875 C 10.296875 -10.351562 10.179688 -11.316406 9.953125 -12.078125 C 9.734375 -12.847656 9.34375 -13.414062 8.78125 -13.78125 C 8.21875 -14.15625 7.425781 -14.34375 6.40625 -14.34375 L 4.890625 -14.34375 Z M 4.890625 -3.140625 "/></g></g></g><g fill="#e76b1a" fill-opacity="1"><g transform="translate(144.89747, 367.314849)"><g><path d="M 7.53125 0.296875 C 5.269531 0.296875 3.59375 -0.378906 2.5 -1.734375 C 1.414062 -3.085938 0.875 -5.273438 0.875 -8.296875 L 0.875 -9.1875 C 0.875 -12.226562 1.414062 -14.421875 2.5 -15.765625 C 3.59375 -17.109375 5.269531 -17.78125 7.53125 -17.78125 C 9.800781 -17.78125 11.484375 -17.109375 12.578125 -15.765625 C 13.671875 -14.421875 14.21875 -12.226562 14.21875 -9.1875 L 14.21875 -8.296875 C 14.21875 -5.273438 13.671875 -3.085938 12.578125 -1.734375 C 11.484375 -0.378906 9.800781 0.296875 7.53125 0.296875 Z M 7.4375 -2.84375 L 7.640625 -2.84375 C 8.765625 -2.84375 9.523438 -3.3125 9.921875 -4.25 C 10.316406 -5.195312 10.515625 -6.546875 10.515625 -8.296875 L 10.515625 -9.1875 C 10.515625 -10.9375 10.316406 -12.28125 9.921875 -13.21875 C 9.523438 -14.164062 8.765625 -14.640625 7.640625 -14.640625 L 7.4375 -14.640625 C 6.320312 -14.640625 5.5625 -14.164062 5.15625 -13.21875 C 4.75 -12.28125 4.546875 -10.9375 4.546875 -9.1875 L 4.546875 -8.296875 C 4.546875 -6.546875 4.75 -5.195312 5.15625 -4.25 C 5.5625 -3.3125 6.320312 -2.84375 7.4375 -2.84375 Z M 7.4375 -2.84375 "/></g></g></g><g fill="#e76b1a" fill-opacity="1"><g transform="translate(167.097625, 367.314849)"><g><path d="M 14.703125 -11.1875 L 11.59375 0 L 7.890625 0 L 4.78125 -11.1875 L 4.890625 -7.6875 L 4.890625 0 L 1.25 0 L 1.25 -17.484375 L 6.609375 -17.484375 L 9.75 -6.296875 L 12.875 -17.484375 L 18.25 -17.484375 L 18.25 0 L 14.625 0 L 14.625 -7.6875 Z M 14.703125 -11.1875 "/></g></g></g><g fill="#e76b1a" fill-opacity="1"><g transform="translate(193.691668, 367.314849)"><g><path d="M 7.53125 0.296875 C 5.269531 0.296875 3.59375 -0.378906 2.5 -1.734375 C 1.414062 -3.085938 0.875 -5.273438 0.875 -8.296875 L 0.875 -9.1875 C 0.875 -12.226562 1.414062 -14.421875 2.5 -15.765625 C 3.59375 -17.109375 5.269531 -17.78125 7.53125 -17.78125 C 9.800781 -17.78125 11.484375 -17.109375 12.578125 -15.765625 C 13.671875 -14.421875 14.21875 -12.226562 14.21875 -9.1875 L 14.21875 -8.296875 C 14.21875 -5.273438 13.671875 -3.085938 12.578125 -1.734375 C 11.484375 -0.378906 9.800781 0.296875 7.53125 0.296875 Z M 7.4375 -2.84375 L 7.640625 -2.84375 C 8.765625 -2.84375 9.523438 -3.3125 9.921875 -4.25 C 10.316406 -5.195312 10.515625 -6.546875 10.515625 -8.296875 L 10.515625 -9.1875 C 10.515625 -10.9375 10.316406 -12.28125 9.921875 -13.21875 C 9.523438 -14.164062 8.765625 -14.640625 7.640625 -14.640625 L 7.4375 -14.640625 C 6.320312 -14.640625 5.5625 -14.164062 5.15625 -13.21875 C 4.75 -12.28125 4.546875 -10.9375 4.546875 -9.1875 L 4.546875 -8.296875 C 4.546875 -6.546875 4.75 -5.195312 5.15625 -4.25 C 5.5625 -3.3125 6.320312 -2.84375 7.4375 -2.84375 Z M 7.4375 -2.84375 "/></g></g></g><g fill="#e76b1a" fill-opacity="1"><g transform="translate(215.891823, 367.314849)"><g><path d="M 4.890625 -6.28125 L 4.890625 0 L 1.25 0 L 1.25 -17.484375 L 7 -17.484375 C 7.71875 -17.484375 8.429688 -17.414062 9.140625 -17.28125 C 9.847656 -17.144531 10.5 -16.894531 11.09375 -16.53125 C 11.695312 -16.164062 12.175781 -15.628906 12.53125 -14.921875 C 12.894531 -14.210938 13.078125 -13.273438 13.078125 -12.109375 L 13.078125 -11.65625 C 13.078125 -10.25 12.8125 -9.164062 12.28125 -8.40625 C 11.757812 -7.65625 11.101562 -7.117188 10.3125 -6.796875 L 13.078125 0 L 9.140625 0 L 6.75 -6.28125 Z M 4.890625 -9.421875 L 7.15625 -9.421875 C 7.476562 -9.421875 7.8125 -9.476562 8.15625 -9.59375 C 8.5 -9.71875 8.789062 -9.945312 9.03125 -10.28125 C 9.269531 -10.613281 9.390625 -11.109375 9.390625 -11.765625 L 9.390625 -12 C 9.390625 -12.65625 9.269531 -13.148438 9.03125 -13.484375 C 8.789062 -13.816406 8.5 -14.039062 8.15625 -14.15625 C 7.8125 -14.28125 7.476562 -14.34375 7.15625 -14.34375 L 4.890625 -14.34375 Z M 4.890625 -9.421875 "/></g></g></g><g fill="#e76b1a" fill-opacity="1"><g transform="translate(236.971083, 367.314849)"><g><path d="M 7.53125 0.296875 C 5.269531 0.296875 3.59375 -0.378906 2.5 -1.734375 C 1.414062 -3.085938 0.875 -5.273438 0.875 -8.296875 L 0.875 -9.1875 C 0.875 -12.226562 1.414062 -14.421875 2.5 -15.765625 C 3.59375 -17.109375 5.269531 -17.78125 7.53125 -17.78125 C 9.800781 -17.78125 11.484375 -17.109375 12.578125 -15.765625 C 13.671875 -14.421875 14.21875 -12.226562 14.21875 -9.1875 L 14.21875 -8.296875 C 14.21875 -5.273438 13.671875 -3.085938 12.578125 -1.734375 C 11.484375 -0.378906 9.800781 0.296875 7.53125 0.296875 Z M 7.4375 -2.84375 L 7.640625 -2.84375 C 8.765625 -2.84375 9.523438 -3.3125 9.921875 -4.25 C 10.316406 -5.195312 10.515625 -6.546875 10.515625 -8.296875 L 10.515625 -9.1875 C 10.515625 -10.9375 10.316406 -12.28125 9.921875 -13.21875 C 9.523438 -14.164062 8.765625 -14.640625 7.640625 -14.640625 L 7.4375 -14.640625 C 6.320312 -14.640625 5.5625 -14.164062 5.15625 -13.21875 C 4.75 -12.28125 4.546875 -10.9375 4.546875 -9.1875 L 4.546875 -8.296875 C 4.546875 -6.546875 4.75 -5.195312 5.15625 -4.25 C 5.5625 -3.3125 6.320312 -2.84375 7.4375 -2.84375 Z M 7.4375 -2.84375 "/></g></g></g></svg>